<svg width="1000" height="1217" viewBox="0 0 1000 1217" fill="none" xmlns="http://www.w3.org/2000/svg">
<g clip-path="url(#clip0_7958_7)">
<path d="M-0.0039097 347.632C-0.0039097 334.311 8.47921 323.127 19.9513 319.978L45.5735 196.492C39.9757 191.262 36.4252 183.552 36.4252 174.941C36.4252 159.177 48.3034 146.404 62.9631 146.404C66.8332 146.404 70.5133 147.305 73.8305 148.912L216.048 20.0016C217.897 18.3295 220.489 17.9858 222.648 19.1377L327.971 75.0696L417.873 44.8788C421.078 43.8012 424.481 45.7242 425.483 49.1613C426.486 52.6077 424.697 56.2677 421.501 57.3453L335.21 86.3192L324.584 327.632C329.215 329.183 333.301 332.063 336.462 335.863L489.038 218.49C491.768 216.391 495.56 217.069 497.512 220.004C499.465 222.94 498.834 227.018 496.104 229.117L342.302 347.437C342.898 349.815 343.226 352.314 343.226 354.897C343.226 364.493 338.821 372.974 332.065 378.148L415.851 575.076C424.11 576.943 448.073 582.443 471.89 588.592C489.15 593.042 502.981 596.971 513.002 600.26C532.05 606.512 535.592 609.717 536.343 614.547C537.717 623.418 523.584 709.383 517.433 745.937C517.088 747.99 515.852 749.737 514.116 750.647L281.089 872.655C281.123 873.241 281.14 873.816 281.14 874.411C281.14 889.544 270.187 901.917 256.348 902.883L225.257 1130.57L514.15 864.109C516.699 861.759 520.526 862.075 522.711 864.815C524.897 867.555 524.603 871.671 522.055 874.021L222.562 1150.25L221.923 1154.95C221.482 1158.2 218.89 1160.54 215.919 1160.54C215.625 1160.54 215.331 1160.52 215.029 1160.47C214.105 1160.32 213.267 1159.96 212.541 1159.43C211.539 1160.16 210.364 1160.54 209.163 1160.54C208.654 1160.54 208.144 1160.47 207.643 1160.33L94.3299 1128.88C90.3994 1139.36 80.8623 1146.75 69.7098 1146.75C55.0501 1146.75 43.172 1133.98 43.172 1118.21C43.172 1102.45 55.0501 1089.68 69.7098 1089.68C73.0184 1089.68 76.1888 1090.34 79.1087 1091.52L234.017 892.442C230.293 887.528 228.056 881.257 228.056 874.42C228.056 862.075 235.347 851.559 245.549 847.583L241.092 778.116C227.063 777.355 215.91 764.888 215.91 749.616C215.91 744.693 217.076 740.048 219.115 736.007L73.6578 591.091C71.1353 591.946 68.4487 592.41 65.667 592.41C51.0073 592.41 39.1291 579.628 39.1291 563.873C39.1291 554.305 43.5089 545.851 50.2298 540.668L19.0184 375.018C8.0214 371.534 -0.0039097 360.6 -0.0039097 347.651V347.632ZM32.4341 319.81C44.2518 322.699 53.0718 334.051 53.0718 347.632C53.0718 353.494 51.4305 358.938 48.6143 363.471L123.131 424.01C125.118 421.697 127.459 419.747 130.059 418.242L60.1037 203.302C58.9548 203.172 57.8317 202.958 56.7346 202.67L32.4341 319.792V319.81ZM84.4474 584.031L227.209 726.262C228.021 725.64 228.868 725.073 229.749 724.553L147.38 471.489C145.825 471.796 144.227 471.963 142.585 471.963C139.622 471.963 136.78 471.433 134.119 470.467L85.8123 545.303C89.7947 550.292 92.2049 556.776 92.2049 563.864C92.2049 571.741 89.2419 578.866 84.4474 584.031ZM261.047 846.728L350.111 653.842L267.405 739.881C268.433 742.918 268.986 746.198 268.986 749.607C268.986 761.293 262.455 771.326 253.108 775.738L257.617 846.06C258.784 846.199 259.924 846.422 261.038 846.719L261.047 846.728ZM242.457 721.07C249.48 721.07 255.855 724.005 260.606 728.789L366.266 618.867L377.815 593.85C379.31 590.617 382.947 589.298 385.953 590.905C387.586 591.779 388.683 593.33 389.115 595.086L404.284 579.303L403.343 577.083C402.254 578.058 400.872 578.606 399.447 578.606C398.609 578.606 397.753 578.42 396.933 578.021L161.875 463.008C160.847 464.178 159.733 465.256 158.541 466.222L241.498 721.097C241.817 721.088 242.137 721.07 242.457 721.07ZM290.937 347.92L79.5925 197.189C77.4501 199.047 75.0313 200.543 72.4224 201.62L141.842 414.897C142.093 414.897 142.343 414.879 142.594 414.879C152.079 414.879 160.39 420.23 165.089 428.274L291.662 364.409C290.686 361.437 290.151 358.232 290.151 354.897C290.151 352.491 290.427 350.159 290.954 347.93L290.937 347.92ZM220.843 32.7375L83.6699 157.086C83.6699 157.086 83.6786 157.096 83.6872 157.105L311.186 80.7083L220.851 32.7375H220.843ZM88.9308 169.023C89.3109 170.937 89.5096 172.916 89.5096 174.95C89.5096 179.205 88.6371 183.236 87.0821 186.869L296.569 336.271C300.569 331.283 306.132 327.799 312.456 326.712L322.865 90.4623L88.9308 169.014V169.023ZM316.68 383.434C309.544 383.434 303.074 380.406 298.305 375.473L169.011 440.713C169.089 441.605 169.132 442.506 169.132 443.416C169.132 446.287 168.735 449.055 168 451.665L397.814 564.114L320.792 383.09C319.444 383.313 318.071 383.434 316.671 383.434H316.68ZM506.021 740.354C513.157 697.734 523.532 632.318 524.301 618.477C513.978 612.531 461.861 598.736 413.502 587.886L376.209 626.688L271.837 852.72C274.083 854.782 276.001 857.244 277.504 860.003L506.021 740.354ZM211.211 1143.52L244.366 900.747C244.124 900.635 243.891 900.524 243.649 900.403L89.2331 1098.86C93.1378 1103.42 95.6776 1109.34 96.17 1115.89L207.626 1146.83L211.219 1143.51L211.211 1143.52ZM65.667 535.326C69.3384 535.326 72.8371 536.125 76.0161 537.574L123.788 463.565C119.002 458.4 116.047 451.284 116.047 443.416C116.047 440.666 116.419 438.01 117.093 435.492L39.561 372.5C37.099 373.996 34.3951 375.083 31.5271 375.668L61.6673 535.651C62.9718 535.438 64.3021 535.326 65.6584 535.326H65.667Z" fill="url(#paint0_radial_7958_7)"/>
<path d="M627.515 958.099C685.377 923.069 886.623 1010.34 947.344 921.824C967.109 893.008 933.85 835.478 933.85 794.846C933.85 774.92 940.822 777.911 945.322 755.663C949.823 733.415 917.886 717.929 916.988 715.031C916.089 712.133 942.662 698.737 945.556 690.6C952.078 672.216 929.807 670.042 933.064 640.52C937.444 600.65 1001.33 629.41 999.979 577.89C999.348 553.858 907.537 465.423 885.275 437.127C863.013 408.831 891.65 381.557 846.021 231.309C781.24 17.9947 330.441 -21.6529 230.674 9.29041C174.903 26.5874 291.49 43.8566 427.782 184.62C578.647 340.423 400.794 470.504 346.812 537.258C292.829 604.012 446.674 672.216 495.258 763.643C543.842 855.07 164.174 1101.85 147.086 1127.88C124.859 1161.74 383.491 1244.42 491.785 1206.44C620.173 1161.42 368.313 1115.03 627.507 958.099H627.515Z" fill="url(#paint1_radial_7958_7)"/>
<path d="M495.261 763.643C446.677 672.216 292.832 604.013 346.815 537.258C400.798 470.504 578.65 340.433 427.785 184.62C317.063 70.2761 219.36 37.4192 216.475 19.8435C215.81 15.784 487.409 164.592 497.965 289.591C508.763 417.536 357.613 514.035 357.613 564.83C357.613 615.624 515.502 712.848 516.175 773.072C516.944 841.303 415.639 935.601 337.088 976.233C431.344 898.369 520.244 810.657 495.253 763.634L495.261 763.643Z" fill="url(#paint2_radial_7958_7)"/>
<path d="M480.869 39.0158C480.869 39.0158 722.656 82.3141 796.206 190.425C852.184 272.711 845.014 360.692 819.824 361.667C794.633 362.633 688.568 332.35 547.897 238.322C414.749 149.319 385.508 32.253 480.869 39.0251V39.0158Z" fill="url(#paint3_radial_7958_7)"/>
<path d="M883.025 446.797C883.025 446.797 996.382 559.989 985.134 572.084C973.887 584.179 940.153 585.145 910.911 545.479C881.669 505.813 855.131 423.582 883.017 446.797H883.025Z" fill="url(#paint4_radial_7958_7)"/>
<path d="M507.329 358.248C509.653 359.279 511.778 360.616 513.67 362.224L610.889 254.168C605.335 246.783 603.322 236.593 606.397 226.95C606.484 226.69 606.57 226.439 606.656 226.188L441.538 86.4281C439.749 88.7411 437.642 90.7105 435.318 92.2897L449.105 149.058C444.155 145.063 439.032 141.255 433.771 137.604L423.802 96.5722C420.105 96.9716 416.278 96.5536 412.529 95.1787C410.741 94.5192 409.065 93.6739 407.501 92.6706L393.628 113.015C389.982 110.98 386.328 108.974 382.674 106.986L398.724 83.4554C398.724 83.4554 398.724 83.4461 398.716 83.4368L371.547 100.957C367.245 98.6344 362.961 96.3214 358.719 93.999L394.707 70.7846C394.371 66.8923 394.768 62.8606 396.029 58.9219C400.78 44.0123 415.872 36.0698 429.737 41.179C437.305 43.9658 442.946 50.0783 445.727 57.4727L562.669 71.4348C569.156 60.7798 581.751 55.7821 593.465 60.1017C604.86 64.3005 611.874 76.0053 611.382 88.3231L746.991 173.777C753.721 168.621 762.584 166.912 770.998 170.015C784.863 175.124 792.249 191.353 787.498 206.262C786.599 209.096 785.321 211.678 783.749 213.963L854.888 386.608C851.57 389.312 848.253 392.015 844.953 394.746L774.039 222.649C767.94 225.854 760.709 226.56 753.781 224.005C747.544 221.711 742.62 217.15 739.519 211.483L658.022 236.36C658.005 239.379 657.547 242.445 656.588 245.455C656.061 247.118 655.387 248.697 654.618 250.174L835.157 402.986C831.909 405.782 828.695 408.606 825.551 411.476L646.377 259.826C645.142 260.727 643.829 261.507 642.472 262.176L667.455 538.575C667.542 539.532 667.429 540.461 667.161 541.315C666.704 542.765 665.771 543.991 664.553 544.79L666.194 546.462L684.992 536.151C683.584 535.147 682.573 533.522 682.34 531.58C681.908 528.004 684.24 524.724 687.566 524.251L708.515 521.287C703.185 524.659 697.431 527.874 693.691 531.831C688.715 538.835 679.428 539.337 674.176 547.224C673.338 549.862 669.511 550.41 666.773 550.391C666.747 553.327 664.302 552.426 663.456 555.064C662.298 556.29 659.603 556.253 658.609 556.736L512.642 407.779C506.526 412.489 498.63 414.347 490.916 412.322C491.676 410.111 492.402 407.872 493.067 405.587C497.654 389.915 502.829 374.151 507.312 358.248H507.329ZM591.634 114.687C586.736 116.08 581.414 115.987 576.257 114.092C564.31 109.689 557.183 97.0274 558.47 84.0778L447.559 70.831C447.455 72.0386 447.274 73.2556 447.023 74.4632L613.429 215.301C615.589 213.146 618.068 211.399 620.746 210.118L591.643 114.687H591.634ZM655.309 223.615L735.908 199.007C735.666 195.301 736.089 191.483 737.281 187.748C737.722 186.364 738.249 185.045 738.862 183.791L607.9 101.263C606.449 103.994 604.618 106.391 602.51 108.407L632.788 207.693C635.224 207.823 637.678 208.306 640.105 209.198C647.025 211.743 652.329 217.066 655.318 223.606L655.309 223.615ZM654.938 534.971L630.516 264.73C627.977 264.628 625.42 264.136 622.897 263.207C622.094 262.91 621.316 262.575 620.565 262.204L521.264 372.581C524.054 379.028 524.615 386.599 522.309 393.854C521.851 395.276 521.307 396.641 520.667 397.932L654.955 534.971H654.938Z" fill="url(#paint5_radial_7958_7)"/>
</g>
<defs>
<radialGradient id="paint0_radial_7958_7" cx="0" cy="0" r="1" gradientUnits="userSpaceOnUse" gradientTransform="translate(528.491 371.228) rotate(180) scale(584.896 628.963)">
<stop stop-color="#FFD675"/>
<stop offset="0.43" stop-color="#B54FFF"/>
<stop offset="0.63" stop-color="#8A3BD9"/>
<stop offset="0.99" stop-color="#1E2684"/>
</radialGradient>
<radialGradient id="paint1_radial_7958_7" cx="0" cy="0" r="1" gradientUnits="userSpaceOnUse" gradientTransform="translate(1238.29 469.937) rotate(95.9177) scale(2028.42 1379.29)">
<stop stop-color="#FFD675"/>
<stop offset="0.43" stop-color="#B54FFF"/>
<stop offset="0.63" stop-color="#8A3BD9"/>
<stop offset="0.99" stop-color="#1E2684"/>
</radialGradient>
<radialGradient id="paint2_radial_7958_7" cx="0" cy="0" r="1" gradientUnits="userSpaceOnUse" gradientTransform="translate(54.5784 26.6991) rotate(180) scale(1736.86 1867.72)">
<stop stop-color="#FCFBFF"/>
<stop offset="0.27" stop-color="#FFB672"/>
<stop offset="0.73" stop-color="#FD4DF3"/>
<stop offset="1" stop-color="#6525AB"/>
</radialGradient>
<radialGradient id="paint3_radial_7958_7" cx="0" cy="0" r="1" gradientUnits="userSpaceOnUse" gradientTransform="translate(859.821 0.492277) rotate(180) scale(406.336 436.949)">
<stop stop-color="white"/>
<stop offset="0.86" stop-color="#FCFBFF" stop-opacity="0"/>
</radialGradient>
<radialGradient id="paint4_radial_7958_7" cx="0" cy="0" r="1" gradientUnits="userSpaceOnUse" gradientTransform="translate(1043.27 544.513) rotate(180) scale(206.299 221.842)">
<stop stop-color="white"/>
<stop offset="0.86" stop-color="#FCFBFF" stop-opacity="0"/>
</radialGradient>
<radialGradient id="paint5_radial_7958_7" cx="0" cy="0" r="1" gradientUnits="userSpaceOnUse" gradientTransform="translate(666.954 109.262) rotate(180) scale(343.688 369.582)">
<stop stop-color="white"/>
<stop offset="0.86" stop-color="#FCFBFF" stop-opacity="0"/>
</radialGradient>
<clipPath id="clip0_7958_7">
<rect width="1000" height="1216.22" fill="white" transform="matrix(-1 0 0 1 1000 0)"/>
</clipPath>
</defs>
</svg>
